#N canvas 706 217 141 63 10;
#N canvas 331 29 978 781 patch 0;
#X obj 192 255 gemwin;
#X msg 173 186 destroy;
#X obj 296 403 t a b;
#N canvas 741 74 525 700 circle 0;
#X obj -868 -25 t a a;
#X obj -868 95 GEMglEnd;
#X obj -817 64 GEMglBegin;
#X obj -868 64 t a a a;
#X obj -849 153 t a b;
#X obj -822 176 f;
#X obj -791 176 + 1;
#X obj -760 18 loadbang;
#X obj -849 128 repeat 200;
#X obj -761 175 % 200;
#X obj -868 7 colorRGB 1 1 1;
#X obj -867 -54 inlet;
#X obj -527 139 inlet;
#X obj -851 496 GEMglVertex3f 0 0 0;
#X floatatom -563 212 5 0 0 0 - - -, f 5;
#X obj -722 370 expr cos($f1);
#X obj -786 367 t f f f;
#X obj -759 431 expr sin($f1)*sin($f2);
#X obj -786 400 expr sin($f1)*cos($f2);
#X obj -825 276 expr ($f1/200)*360;
#X obj -825 306 deg2rad;
#X obj -676 304 deg2rad;
#X obj -591 403 deg2rad;
#X obj -810 224 t f f f;
#X msg -760 41 2;
#X obj -524 167 * 360;
#X obj -722 460 * 1.9;
#X obj -761 454 * 1.9;
#X obj -814 459 * 1.9;
#X floatatom -493 409 5 0 0 0 - - -, f 5;
#X obj -474 311 inlet;
#X obj -868 32 GEMglLineWidth 2;
#X msg -526 435 \$1 500;
#X obj -529 460 line;
#X obj -676 278 expr ($f1/400)*$f2;
#X obj -486 355 randomF 1;
#X obj -487 383 + 0.5;
#X connect 0 0 10 0;
#X connect 3 0 1 0;
#X connect 3 1 8 0;
#X connect 3 2 2 0;
#X connect 4 0 13 0;
#X connect 4 1 5 0;
#X connect 5 0 6 0;
#X connect 5 0 23 0;
#X connect 6 0 9 0;
#X connect 7 0 24 0;
#X connect 8 0 4 0;
#X connect 9 0 5 1;
#X connect 10 0 31 0;
#X connect 11 0 0 0;
#X connect 12 0 25 0;
#X connect 14 0 34 1;
#X connect 15 0 26 0;
#X connect 16 0 18 0;
#X connect 16 1 17 0;
#X connect 16 2 15 0;
#X connect 17 0 27 0;
#X connect 18 0 28 0;
#X connect 19 0 20 0;
#X connect 20 0 16 0;
#X connect 21 0 18 1;
#X connect 22 0 17 1;
#X connect 23 0 19 0;
#X connect 23 1 34 0;
#X connect 24 0 2 1;
#X connect 25 0 14 0;
#X connect 26 0 13 2;
#X connect 27 0 13 3;
#X connect 28 0 13 1;
#X connect 29 0 32 0;
#X connect 30 0 35 0;
#X connect 31 0 3 0;
#X connect 32 0 33 0;
#X connect 33 0 26 1;
#X connect 33 0 27 1;
#X connect 33 0 28 1;
#X connect 34 0 21 0;
#X connect 34 0 22 0;
#X connect 35 0 36 0;
#X connect 36 0 29 0;
#X restore 25 683 pd circle;
#X floatatom 418 305 5 0 0 0 - - -, f 5;
#X obj 418 431 expr 2*abs($f1-0.5);
#X obj 418 329 moses 1;
#X msg 456 350 1;
#X floatatom 418 373 5 0 0 0 - - -, f 5;
#X obj 418 398 expr 1-$f1;
#X floatatom 418 459 5 0 0 0 - - -, f 5;
#X obj 418 482 expr 1-$f1;
#X floatatom 418 506 5 0 0 0 - - -, f 5;
#N canvas 741 74 525 700 circle 0;
#X obj -868 -25 t a a;
#X obj -868 95 GEMglEnd;
#X obj -817 64 GEMglBegin;
#X obj -868 64 t a a a;
#X obj -849 153 t a b;
#X obj -822 176 f;
#X obj -791 176 + 1;
#X obj -760 18 loadbang;
#X obj -849 128 repeat 200;
#X obj -761 175 % 200;
#X obj -868 7 colorRGB 1 1 1;
#X obj -867 -54 inlet;
#X obj -564 162 inlet;
#X obj -851 496 GEMglVertex3f 0 0 0;
#X text -660 -21 ::Spherical coordinate::;
#X obj -657 6 expr $f1*cos($f2)*cos($f3);
#X obj -657 28 expr $f1*sin($f2);
#X obj -657 51 expr $f1*sin($f2)*cos($f3);
#X text -659 78 $f1=radius \, $f2=theta \, $f3=phi;
#X text -677 7 x=;
#X text -677 28 y=;
#X text -677 50 z=;
#X floatatom -563 212 5 0 0 0 - - -, f 5;
#X obj -722 370 expr cos($f1);
#X obj -786 367 t f f f;
#X obj -769 429 expr sin($f1)*sin($f2);
#X obj -786 400 expr sin($f1)*cos($f2);
#X obj -825 276 expr ($f1/200)*360;
#X obj -825 306 deg2rad;
#X obj -676 304 deg2rad;
#X obj -676 278 expr ($f1/200)*$f2;
#X floatatom -564 237 5 0 0 0 - - -, f 5;
#X obj -591 403 deg2rad;
#X obj -810 224 t f f f;
#X obj -564 188 * 360;
#X obj -814 459 * 1.8;
#X obj -769 452 * 1.8;
#X obj -722 460 * 1.8;
#X floatatom -483 419 5 0 0 0 - - -, f 5;
#X obj -464 321 inlet;
#X obj -476 393 + 1.2;
#X msg -760 41 0;
#X obj -476 365 randomF 2;
#X msg -485 450 \$1 500;
#X obj -488 475 line;
#X obj -868 32 GEMglPointSize 2;
#X connect 0 0 10 0;
#X connect 3 0 1 0;
#X connect 3 1 8 0;
#X connect 3 2 2 0;
#X connect 4 0 13 0;
#X connect 4 1 5 0;
#X connect 5 0 6 0;
#X connect 5 0 33 0;
#X connect 6 0 9 0;
#X connect 7 0 41 0;
#X connect 8 0 4 0;
#X connect 9 0 5 1;
#X connect 10 0 45 0;
#X connect 11 0 0 0;
#X connect 12 0 34 0;
#X connect 22 0 31 0;
#X connect 23 0 37 0;
#X connect 24 0 26 0;
#X connect 24 1 25 0;
#X connect 24 2 23 0;
#X connect 25 0 36 0;
#X connect 26 0 35 0;
#X connect 27 0 28 0;
#X connect 28 0 24 0;
#X connect 29 0 26 1;
#X connect 30 0 29 0;
#X connect 30 0 32 0;
#X connect 31 0 30 1;
#X connect 32 0 25 1;
#X connect 33 0 27 0;
#X connect 33 1 30 0;
#X connect 34 0 22 0;
#X connect 35 0 13 1;
#X connect 36 0 13 3;
#X connect 37 0 13 2;
#X connect 38 0 43 0;
#X connect 39 0 42 0;
#X connect 40 0 38 0;
#X connect 41 0 2 1;
#X connect 42 0 40 0;
#X connect 43 0 44 0;
#X connect 44 0 37 1;
#X connect 44 0 36 1;
#X connect 44 0 35 1;
#X connect 45 0 3 0;
#X restore 349 703 pd circle;
#N canvas 741 74 525 700 circle 0;
#X obj -868 -25 t a a;
#X obj -868 95 GEMglEnd;
#X obj -817 64 GEMglBegin;
#X obj -868 64 t a a a;
#X obj -849 153 t a b;
#X obj -822 176 f;
#X obj -791 176 + 1;
#X obj -760 18 loadbang;
#X obj -849 128 repeat 200;
#X obj -761 175 % 200;
#X obj -868 7 colorRGB 1 1 1;
#X obj -867 -54 inlet;
#X obj -564 162 inlet;
#X obj -851 496 GEMglVertex3f 0 0 0;
#X text -660 -21 ::Spherical coordinate::;
#X obj -657 6 expr $f1*cos($f2)*cos($f3);
#X obj -657 28 expr $f1*sin($f2);
#X obj -657 51 expr $f1*sin($f2)*cos($f3);
#X text -659 78 $f1=radius \, $f2=theta \, $f3=phi;
#X text -677 7 x=;
#X text -677 28 y=;
#X text -677 50 z=;
#X floatatom -563 212 5 0 0 0 - - -, f 5;
#X obj -722 370 expr cos($f1);
#X obj -786 367 t f f f;
#X obj -769 429 expr sin($f1)*sin($f2);
#X obj -786 400 expr sin($f1)*cos($f2);
#X obj -825 276 expr ($f1/200)*360;
#X obj -825 306 deg2rad;
#X obj -676 304 deg2rad;
#X obj -591 403 deg2rad;
#X obj -810 224 t f f f;
#X obj -564 188 * 360;
#X obj -721 460 * 1.7;
#X obj -769 452 * 1.7;
#X obj -814 458 * 1.7;
#X floatatom -473 429 5 0 0 0 - - -, f 5;
#X obj -454 331 inlet;
#X obj -466 403 + 1.2;
#X obj -868 32 GEMglLineWidth 6;
#X msg -760 41 3;
#X obj -466 375 randomF 2;
#X msg -465 470 \$1 500;
#X obj -468 495 line;
#X obj -676 278 expr ($f1/100)*$f2;
#X connect 0 0 10 0;
#X connect 3 0 1 0;
#X connect 3 1 8 0;
#X connect 3 2 2 0;
#X connect 4 0 13 0;
#X connect 4 1 5 0;
#X connect 5 0 6 0;
#X connect 5 0 31 0;
#X connect 6 0 9 0;
#X connect 7 0 40 0;
#X connect 8 0 4 0;
#X connect 9 0 5 1;
#X connect 10 0 39 0;
#X connect 11 0 0 0;
#X connect 12 0 32 0;
#X connect 22 0 44 1;
#X connect 23 0 33 0;
#X connect 24 0 26 0;
#X connect 24 1 25 0;
#X connect 24 2 23 0;
#X connect 25 0 34 0;
#X connect 26 0 35 0;
#X connect 27 0 28 0;
#X connect 28 0 24 0;
#X connect 29 0 26 1;
#X connect 30 0 25 1;
#X connect 31 0 27 0;
#X connect 31 1 44 0;
#X connect 32 0 22 0;
#X connect 33 0 13 2;
#X connect 34 0 13 3;
#X connect 35 0 13 1;
#X connect 36 0 42 0;
#X connect 37 0 41 0;
#X connect 38 0 36 0;
#X connect 39 0 3 0;
#X connect 40 0 2 1;
#X connect 41 0 38 0;
#X connect 42 0 43 0;
#X connect 43 0 33 1;
#X connect 43 0 34 1;
#X connect 43 0 35 1;
#X connect 44 0 29 0;
#X connect 44 0 30 0;
#X restore 509 697 pd circle;
#X obj 534 600 pipe 0;
#X obj 412 643 pipe 400;
#X floatatom 624 606 5 0 0 0 - - -, f 5;
#X obj 510 656 rotateXYZ 180 0 0;
#X obj 349 676 rotateXYZ 0 180 90;
#X obj 585 458 t f f f;
#X floatatom 91 589 5 0 0 0 - - -, f 5;
#X obj 25 645 rotateXYZ 0 0 180;
#X obj 624 554 pipe 200;
#X obj 604 480 pipe 600;
#X obj 624 579 * 720;
#X obj 585 547 * 720;
#X obj 604 501 * 720;
#X obj 429 145 tgl 15 0 empty empty empty 17 7 0 10 -262144 -1 -1 1
1;
#X obj 296 376 gemframebuffer;
#X obj 175 283 loadbang;
#X obj 295 432 translateXYZ 0 0 -4;
#X obj 296 326 gemhead -1;
#X obj 25 589 separator;
#X obj 349 642 separator;
#X obj 510 633 separator;
#X obj 564 312 gemhead -1;
#X obj 429 166 metro 30;
#X obj 616 404 tgl 15 0 empty empty empty 17 7 0 10 -262144 -1 -1 0
1;
#X obj 598 144 change;
#X obj 598 119 == 1;
#X obj 50 622 pipe 200;
#X obj 585 524 pipe 600;
#X obj 656 202 bng 15 250 50 0 empty empty empty 17 7 0 10 -262144
-1 -1;
#X obj 697 467 + 1;
#X obj 697 419 t b b b;
#X obj 745 494 + 1;
#X obj 786 517 + 1;
#X obj 786 543 * 180;
#X obj 744 520 * 180;
#X obj 697 493 * 180;
#X obj 564 430 square 4;
#X obj 429 123 loadbang;
#N canvas 741 74 525 700 circle 0;
#X obj -868 -25 t a a;
#X obj -868 95 GEMglEnd;
#X obj -817 64 GEMglBegin;
#X obj -868 64 t a a a;
#X obj -849 153 t a b;
#X obj -822 176 f;
#X obj -791 176 + 1;
#X obj -760 18 loadbang;
#X obj -849 128 repeat 200;
#X obj -761 175 % 200;
#X obj -868 7 colorRGB 1 1 1;
#X obj -867 -54 inlet;
#X obj -527 139 inlet;
#X obj -851 496 GEMglVertex3f 0 0 0;
#X floatatom -563 212 5 0 0 0 - - -, f 5;
#X obj -722 370 expr cos($f1);
#X obj -786 367 t f f f;
#X obj -759 431 expr sin($f1)*sin($f2);
#X obj -786 400 expr sin($f1)*cos($f2);
#X obj -825 276 expr ($f1/200)*360;
#X obj -825 306 deg2rad;
#X obj -676 304 deg2rad;
#X obj -591 403 deg2rad;
#X obj -810 224 t f f f;
#X obj -524 167 * 360;
#X obj -722 460 * 1.9;
#X obj -761 454 * 1.9;
#X obj -814 459 * 1.9;
#X floatatom -493 409 5 0 0 0 - - -, f 5;
#X obj -486 331 inlet;
#X obj -486 355 randomF 2;
#X obj -868 32 GEMglLineWidth 4;
#X msg -760 41 3;
#X obj -487 383 + 0.5;
#X msg -495 440 \$1 500;
#X obj -498 465 line;
#X obj -676 278 expr ($f1/600)*$f2;
#X connect 0 0 10 0;
#X connect 3 0 1 0;
#X connect 3 1 8 0;
#X connect 3 2 2 0;
#X connect 4 0 13 0;
#X connect 4 1 5 0;
#X connect 5 0 6 0;
#X connect 5 0 23 0;
#X connect 6 0 9 0;
#X connect 7 0 32 0;
#X connect 8 0 4 0;
#X connect 9 0 5 1;
#X connect 10 0 31 0;
#X connect 11 0 0 0;
#X connect 12 0 24 0;
#X connect 14 0 36 1;
#X connect 15 0 25 0;
#X connect 16 0 18 0;
#X connect 16 1 17 0;
#X connect 16 2 15 0;
#X connect 17 0 26 0;
#X connect 18 0 27 0;
#X connect 19 0 20 0;
#X connect 20 0 16 0;
#X connect 21 0 18 1;
#X connect 22 0 17 1;
#X connect 23 0 19 0;
#X connect 23 1 36 0;
#X connect 24 0 14 0;
#X connect 25 0 13 2;
#X connect 26 0 13 3;
#X connect 27 0 13 1;
#X connect 28 0 34 0;
#X connect 29 0 30 0;
#X connect 30 0 33 0;
#X connect 31 0 3 0;
#X connect 32 0 2 1;
#X connect 33 0 28 0;
#X connect 34 0 35 0;
#X connect 35 0 25 1;
#X connect 35 0 26 1;
#X connect 35 0 27 1;
#X connect 36 0 21 0;
#X connect 36 0 22 0;
#X restore 179 697 pd circle;
#X obj 179 659 rotateXYZ 0 0 180;
#X obj 179 618 separator;
#X obj 297 501 t a a a a;
#X obj 243 618 pipe 300;
#X obj 663 289 randomF 1;
#X obj 722 292 randomF 1;
#X obj 598 248 randomF 1;
#X obj 788 215 t b;
#X obj 788 239 randomF 0.3;
#X floatatom 788 285 5 0 0 0 - - -, f 5;
#X obj 418 278 f;
#X obj 564 375 colorRGB 1 0.5 0 0.5;
#X msg 788 306 \$1 500;
#X obj 788 329 line;
#X obj 656 222 s random_radius;
#X obj 575 695 r random_radius;
#X obj 411 702 r random_radius;
#X obj 243 698 r random_radius;
#X obj 76 662 r random_radius;
#X obj 418 531 t f f f f;
#X obj 722 317 + 0.1;
#X obj 663 314 + 0.1;
#X obj 598 273 + 0.1;
#X obj 447 277 + 0.005;
#X obj 103 369 r random_radius;
#X obj 744 470 random 6;
#X obj 697 443 random 6;
#X obj 786 493 random 6;
#X obj 499 277 fmod 1.25;
#X obj 429 191 t b b b;
#X obj 598 223 t b b b;
#X obj 515 86 random 3;
#X obj 515 106 sel 0;
#X msg 515 127 1 0;
#X msg 543 128 0 1;
#X obj 489 190 spigot;
#X obj 514 153 unpack f f;
#X obj 536 189 spigot 1;
#X floatatom 478 106 5 0 0 0 - - -, f 5;
#X obj 564 402 alpha 1;
#X obj 564 349 pix_texture;
#X msg 175 302 dimen 1200 1200 \, format RGBA \, rectangle 0;
#X obj 94 483 pack f f f f;
#X obj 103 393 t b b b b;
#X obj 213 472 sel 0;
#X msg 94 508 color \$1 \$2 \$3 \$4;
#X obj 213 520 tgl 15 0 empty empty empty 17 7 0 10 -262144 -1 -1 0
1;
#X msg 213 494 0;
#X msg 240 494 1;
#X msg 192 216 reset \, color 0 0 0 \, dimen 600 600 \, FSAA 2 \, border
1 \, buffer 1 \, create \, 1;
#X obj 94 453 randomF 0.04;
#X obj 122 430 randomF 0.04;
#X obj 151 409 randomF 0.04;
#X obj 213 449 random 6;
#X obj 58 341 GLdefine GL_SMOOTH;
#X obj 53 314 loadbang;
#X msg 120 312 bang;
#X obj 291 466 GEMglShadeModel;
#X obj 788 261 + 0.1;
#X obj 598 172 t b b b f b b b;
#X connect 1 0 0 0;
#X connect 2 0 31 0;
#X connect 2 1 64 0;
#X connect 4 0 6 0;
#X connect 5 0 10 0;
#X connect 6 0 8 0;
#X connect 6 1 7 0;
#X connect 7 0 8 0;
#X connect 8 0 9 0;
#X connect 8 0 40 0;
#X connect 9 0 5 0;
#X connect 9 0 20 0;
#X connect 10 0 11 0;
#X connect 11 0 12 0;
#X connect 12 0 73 0;
#X connect 15 0 14 1;
#X connect 16 0 13 1;
#X connect 17 0 18 3;
#X connect 18 0 14 0;
#X connect 19 0 13 0;
#X connect 20 0 42 0;
#X connect 20 1 24 0;
#X connect 20 2 23 0;
#X connect 21 0 22 2;
#X connect 22 0 3 0;
#X connect 23 0 25 0;
#X connect 24 0 27 0;
#X connect 25 0 17 0;
#X connect 26 0 21 0;
#X connect 27 0 19 3;
#X connect 27 0 54 1;
#X connect 28 0 37 0;
#X connect 29 0 2 0;
#X connect 29 1 94 1;
#X connect 30 0 95 0;
#X connect 31 0 111 0;
#X connect 32 0 29 0;
#X connect 33 0 22 0;
#X connect 34 0 19 0;
#X connect 35 0 18 0;
#X connect 36 0 94 0;
#X connect 37 0 83 0;
#X connect 38 0 93 1;
#X connect 39 0 113 0;
#X connect 40 0 39 0;
#X connect 41 0 3 1;
#X connect 42 0 26 0;
#X connect 43 0 68 0;
#X connect 44 0 50 0;
#X connect 45 0 80 0;
#X connect 45 1 79 0;
#X connect 45 2 81 0;
#X connect 46 0 49 0;
#X connect 47 0 48 0;
#X connect 48 0 27 1;
#X connect 49 0 25 1;
#X connect 50 0 26 1;
#X connect 52 0 28 0;
#X connect 52 0 103 0;
#X connect 54 0 53 0;
#X connect 55 0 54 0;
#X connect 56 0 33 0;
#X connect 56 1 34 0;
#X connect 56 2 35 0;
#X connect 56 3 55 0;
#X connect 57 0 53 1;
#X connect 58 0 75 0;
#X connect 59 0 74 0;
#X connect 60 0 76 0;
#X connect 61 0 62 0;
#X connect 62 0 112 0;
#X connect 63 0 66 0;
#X connect 64 0 4 0;
#X connect 64 0 77 0;
#X connect 65 0 93 0;
#X connect 66 0 67 0;
#X connect 67 0 65 4;
#X connect 69 0 14 2;
#X connect 70 0 13 2;
#X connect 71 0 53 2;
#X connect 72 0 3 2;
#X connect 73 0 41 0;
#X connect 73 1 57 0;
#X connect 73 2 16 0;
#X connect 73 3 15 0;
#X connect 74 0 65 3;
#X connect 75 0 65 2;
#X connect 76 0 65 1;
#X connect 77 0 82 0;
#X connect 78 0 97 0;
#X connect 79 0 46 0;
#X connect 80 0 44 0;
#X connect 81 0 47 0;
#X connect 82 0 64 1;
#X connect 83 0 32 0;
#X connect 83 1 36 0;
#X connect 83 2 89 0;
#X connect 84 0 60 0;
#X connect 84 1 58 0;
#X connect 84 2 59 0;
#X connect 85 0 86 0;
#X connect 85 0 92 0;
#X connect 86 0 87 0;
#X connect 86 1 88 0;
#X connect 87 0 90 0;
#X connect 88 0 90 0;
#X connect 89 0 84 0;
#X connect 90 0 89 1;
#X connect 90 1 91 1;
#X connect 91 0 84 0;
#X connect 93 0 51 0;
#X connect 94 0 65 0;
#X connect 95 0 29 0;
#X connect 96 0 99 0;
#X connect 97 0 104 0;
#X connect 97 1 105 0;
#X connect 97 2 106 0;
#X connect 97 3 107 0;
#X connect 98 0 101 0;
#X connect 98 1 102 0;
#X connect 99 0 29 0;
#X connect 100 0 96 3;
#X connect 101 0 100 0;
#X connect 102 0 100 0;
#X connect 103 0 0 0;
#X connect 104 0 96 0;
#X connect 105 0 96 1;
#X connect 106 0 96 2;
#X connect 107 0 98 0;
#X connect 108 0 111 1;
#X connect 109 0 108 0;
#X connect 110 0 108 0;
#X connect 111 0 56 0;
#X connect 112 0 63 0;
#X connect 113 0 91 0;
#X connect 113 2 85 0;
#X connect 113 3 38 0;
#X connect 113 4 43 0;
#X connect 113 5 45 0;
#X connect 113 6 61 0;
#X restore 14 20 pd patch;
